# xmcd
#
# Track frame offsets:
# 150
# 25535
# 41810
# 58664
# 72361
# 86956
# 116035
# 132329
# 150168
# 161524
# 177336
# 196836
# 212034
# 232434
# 266735
#
# Disc length: 4440 seconds
#
#
# Revision: 0
# Processed by: cddbd v1.5.2PL0 Copyright (c) Steve Scherf et al.
# Submitted via: FreeRIP 2.951 
#
DISCID=d811560f
DTITLE=Simone - Simone ao vivo
DYEAR=2005
DGENRE=Pop
TTITLE0=Sarava, Sarava/To voltando
TTITLE1=Comecar de novo
TTITLE2=Vitoriosa
TTITLE3=Dandara
TTITLE4=O que sera (A flor da terra)
TTITLE5=Jura secreta
TTITLE6=Encontros e despedidas
TTITLE7=Cigarra
TTITLE8=Dia branco
TTITLE9=Nos
TTITLE10=Nao va ainda
TTITLE11=Idade do ceu
TTITLE12=Parei contigo
TTITLE13=Entao me diz
TTITLE14=Dados
EXTD=
EXTT0=
EXTT1=
EXTT2=
EXTT3=
EXTT4=
EXTT5=
EXTT6=
EXTT7=
EXTT8=
EXTT9=
EXTT10=
EXTT11=
EXTT12=
EXTT13=
EXTT14=
PLAYORDER=
